<svg xmlns="http://www.w3.org/2000/svg" width="1920" height="1080" viewBox="0 0 1920 1080">
  <!-- Dark background -->
  <rect width="100%" height="100%" fill="#0A1929"/>
  
  <!-- Grid pattern -->
  <pattern id="grid" width="50" height="50" patternUnits="userSpaceOnUse">
    <path d="M 50 0 L 0 0 0 50" fill="none" stroke="#1A2A3A" stroke-width="1"/>
  </pattern>
  <rect width="100%" height="100%" fill="url(#grid)"/>
  
  <!-- Decorative elements -->
  <circle cx="300" cy="200" r="150" fill="#0077FF" opacity="0.05"/>
  <circle cx="1600" cy="800" r="200" fill="#FF6B00" opacity="0.05"/>
  
  <!-- Tool silhouettes -->
  <g opacity="0.1" fill="#FFFFFF">
    <!-- Wrench -->
    <path d="M500 300 Q550 250, 600 300 L650 250 Q700 200, 750 250 L700 300 Q750 350, 700 400 L650 350 Q600 400, 550 350 L500 300Z"/>
    
    <!-- Gear -->
    <path d="M1200 500 L1220 450 L1250 440 L1280 450 L1300 500 L1280 550 L1250 560 L1220 550 L1200 500 M1250 500 m-30 0 a30,30 0 1,0 60,0 a30,30 0 1,0 -60,0"/>
    
    <!-- Car silhouette -->
    <path d="M800 700 Q900 650, 1000 700 L1100 700 Q1150 700, 1150 750 L1150 800 Q1150 850, 1100 850 L800 850 Q750 850, 750 800 L750 750 Q750 700, 800 700 M850 850 L850 900 M1050 850 L1050 900 M900 700 L900 650 M1000 700 L1000 650"/>
  </g>
</svg>
